<svg xmlns="http://www.w3.org/2000/svg" width="24" height="24" fill="none"><path fill="#4A2F00" d="m22.473 11.719-1.54-8.25a1.5 1.5 0 0 0-1.838-1.18l-.03.009-4.923 1.452H9.858L4.934 2.303l-.03-.009a1.5 1.5 0 0 0-1.838 1.18l-1.539 8.245a1.48 1.48 0 0 0 .855 1.642 1.46 1.46 0 0 0 1.368-.063v3.952A3.75 3.75 0 0 0 7.5 21h9a3.75 3.75 0 0 0 3.75-3.75V13.3c.223.132.478.202.738.202.217 0 .432-.048.63-.138a1.48 1.48 0 0 0 .855-1.644ZM3 12l1.54-8.25 3.944 1.16zm13.5 7.5h-3.75v-1.19l1.28-1.28a.75.75 0 0 0-1.06-1.06l-.97.97-.97-.97a.75.75 0 1 0-1.06 1.06l1.28 1.28v1.19H7.5a2.25 2.25 0 0 1-2.25-2.25v-5.708l4.867-6.292h3.764l4.869 6.292v5.708a2.25 2.25 0 0 1-2.25 2.25M21 12l-5.485-7.09 3.945-1.16zM9.75 13.125a1.125 1.125 0 1 1-2.25 0 1.125 1.125 0 0 1 2.25 0m6.75 0a1.125 1.125 0 1 1-2.25 0 1.125 1.125 0 0 1 2.25 0"/></svg>